<?xml version="1.0" encoding="UTF-8"?>
<svg width="980px" height="784px" viewBox="0 0 980 784" version="1.1" xmlns="http://www.w3.org/2000/svg" xmlns:xlink="http://www.w3.org/1999/xlink">
    <!-- Generator: Sketch 50 (54983) - http://www.bohemiancoding.com/sketch -->
    <title>e1b7d3c5d269dc0eefdb02f7229513a6</title>
    <desc>Created with Sketch.</desc>
    <defs/>
    <g id="Page-1" stroke="none" stroke-width="1" fill="none" fill-rule="evenodd">
        <g id="e1b7d3c5d269dc0eefdb02f7229513a6" transform="translate(490.000000, 392.000000) scale(-1, 1) translate(-490.000000, -392.000000) " fill="#000000" fill-rule="nonzero">
            <path d="M98.7,169.9 L895.4,169.9 C942.1,169.9 980,132 980,85.3 C980,38.6 942.1,0.7 895.4,0.7 L98.7,0.7 C52,0.7 14.1,38.6 14.1,85.3 C14.1,132 52,169.9 98.7,169.9 M884.8,303.9 L88.1,303.9 C39.5,303.9 0,343.3 0,392 C0,440.7 39.5,480.1 88.1,480.1 L884.8,480.1 C933.5,480.1 972.9,440.6 972.9,392 C972.9,343.4 933.5,303.9 884.8,303.9 M631,621.1 L95.2,621.1 C50.4,621.1 14.1,657.4 14.1,702.2 C14.1,747 50.4,783.3 95.2,783.3 L631,783.3 C675.8,783.3 712.1,747 712.1,702.2 C712.1,657.4 675.8,621.1 631,621.1" id="Shape"/>
        </g>
    </g>
</svg>